<?xml version="1.0" standalone="no"?>
<!DOCTYPE svg PUBLIC "-//W3C//DTD SVG 20010904//EN"
 "http://www.w3.org/TR/2001/REC-SVG-20010904/DTD/svg10.dtd">
<svg version="1.0" xmlns="http://www.w3.org/2000/svg"
 width="153.000000pt" height="153.000000pt" viewBox="0 0 153.000000 153.000000"
 preserveAspectRatio="xMidYMid meet">
<metadata>
Created by potrace 1.16, written by Peter Selinger 2001-2019
</metadata>
<g transform="translate(0.000000,153.000000) scale(0.100000,-0.100000)"
fill="#000000" stroke="none">
<path d="M130 765 l0 -555 635 0 635 0 0 555 0 555 -635 0 -635 0 0 -555z
m1220 460 l0 -55 -585 0 -585 0 0 55 0 55 585 0 585 0 0 -55z m0 -540 l0 -435
-585 0 -585 0 0 435 0 435 585 0 585 0 0 -435z"/>
<path d="M960 974 c-61 -22 -109 -60 -126 -100 -22 -52 -20 -334 3 -381 60
-127 333 -147 437 -33 44 49 48 73 44 256 -3 146 -4 152 -30 186 -39 52 -107
80 -203 84 -57 3 -93 0 -125 -12z m205 -45 c49 -14 105 -68 105 -102 0 -66
-107 -122 -220 -114 -101 7 -180 56 -180 113 0 31 38 74 84 95 47 21 149 25
211 8z m-215 -245 c26 -9 77 -17 120 -17 61 -1 86 4 134 26 32 15 60 27 62 27
11 0 2 -58 -12 -78 -31 -44 -91 -66 -184 -66 -128 0 -200 44 -200 123 0 32 1
33 18 18 10 -9 38 -24 62 -33z m-4 -137 c72 -26 137 -30 204 -13 34 9 71 23
83 31 30 21 37 19 37 -13 0 -38 -23 -68 -73 -95 -60 -31 -194 -31 -254 0 -52
28 -73 57 -73 102 0 32 1 33 18 18 10 -9 36 -23 58 -30z"/>
<path d="M443 968 c-4 -7 -6 -21 -5 -30 2 -11 -7 -22 -22 -30 -21 -9 -29 -8
-44 5 -26 24 -33 22 -75 -21 -42 -43 -43 -48 -20 -74 23 -26 4 -65 -34 -70
-27 -3 -28 -5 -28 -63 l0 -60 32 -3 c24 -2 33 -9 38 -30 4 -18 2 -30 -9 -38
-24 -17 -20 -26 30 -74 45 -45 46 -45 60 -24 13 19 19 21 45 11 16 -7 29 -18
28 -27 -3 -39 0 -41 64 -38 59 3 62 4 65 29 2 16 12 30 26 37 19 8 27 6 45
-11 l22 -22 46 48 46 49 -21 20 c-27 27 -12 65 27 70 25 3 26 6 29 66 l3 62
-29 0 c-21 0 -32 7 -41 26 -10 23 -9 29 9 47 l22 19 -43 44 c-47 48 -56 52
-73 28 -8 -11 -20 -13 -39 -9 -21 6 -27 13 -27 35 0 16 -7 30 -16 34 -28 11
-103 6 -111 -6z m77 -61 c0 -19 11 -28 55 -46 53 -22 57 -23 75 -6 19 17 20
17 26 0 4 -10 1 -20 -6 -25 -13 -8 -12 -16 13 -85 10 -27 22 -41 36 -43 27 -4
28 -32 1 -32 -13 0 -24 -10 -30 -27 -6 -16 -16 -38 -22 -51 -9 -18 -9 -28 1
-44 17 -28 1 -44 -27 -27 -16 10 -26 10 -44 1 -13 -6 -35 -16 -50 -22 -21 -7
-28 -16 -28 -35 0 -20 -4 -26 -17 -23 -12 2 -17 11 -15 24 2 16 -8 25 -50 42
-61 25 -75 27 -80 10 -3 -7 -12 -9 -22 -5 -18 7 -18 8 0 28 16 18 17 22 2 47
-8 15 -18 39 -22 55 -5 20 -12 27 -31 27 -16 0 -25 6 -25 15 0 8 9 15 20 15
15 0 27 15 45 57 23 50 24 58 10 73 -22 24 1 46 26 24 15 -13 20 -13 55 2 65
28 69 30 72 53 5 29 32 27 32 -2z"/>
<path d="M432 823 c-44 -21 -74 -66 -80 -119 -13 -115 99 -201 207 -158 49 19
77 52 92 106 33 122 -103 229 -219 171z m122 -44 c63 -29 72 -126 15 -173 -70
-59 -168 -11 -169 82 0 80 77 126 154 91z"/>
</g>
</svg>
