<?xml version="1.0" standalone="no"?>
<!DOCTYPE svg PUBLIC "-//W3C//DTD SVG 20010904//EN"
 "http://www.w3.org/TR/2001/REC-SVG-20010904/DTD/svg10.dtd">
<svg version="1.0" xmlns="http://www.w3.org/2000/svg"
 width="1000.000000pt" height="1000.000000pt" viewBox="0 0 1000.000000 1000.000000"
 preserveAspectRatio="xMidYMid meet">
<metadata>
Created by potrace 1.16, written by Peter Selinger 2001-2019
</metadata>
<g transform="translate(0.000000,1000.000000) scale(0.100000,-0.100000)"
fill="#000000" stroke="none">
<path d="M3698 8545 c-19 -19 -26 -39 -31 -84 -13 -152 -136 -283 -280 -297
-100 -11 -127 -31 -127 -99 0 -55 32 -80 109 -88 80 -9 138 -34 195 -87 56
-52 93 -126 102 -205 9 -76 18 -93 60 -111 29 -12 39 -12 67 0 38 15 53 45 61
123 14 144 145 267 297 280 76 7 109 35 109 91 0 57 -33 84 -114 93 -163 20
-275 132 -295 295 -9 80 -37 114 -91 114 -26 0 -45 -7 -62 -25z m119 -415 l61
-61 -60 -59 -59 -59 -59 59 -59 59 57 59 c31 33 57 60 58 61 0 0 28 -26 61
-59z"/>
<path d="M5203 8534 c4 -22 7 -62 7 -90 l0 -51 173 -6 c119 -3 205 -11 281
-26 693 -139 1229 -676 1366 -1367 31 -155 38 -410 16 -564 -42 -288 -141
-540 -304 -770 -91 -130 -289 -325 -432 -426 -176 -125 -284 -244 -363 -398
l-36 -69 -582 2 -583 1 -44 83 c-83 157 -179 261 -355 387 -316 225 -529 506
-650 856 -59 170 -97 386 -97 553 0 81 0 81 -107 81 l-76 0 6 -142 c19 -422
165 -813 423 -1129 86 -106 271 -278 379 -354 55 -38 132 -101 171 -140 67
-66 144 -168 144 -190 0 -6 -40 -10 -102 -10 l-103 0 0 -89 0 -88 141 1 142 2
11 -31 c6 -18 13 -54 17 -81 l7 -49 -77 0 -76 0 0 -90 0 -90 80 0 80 0 0 -125
c0 -75 5 -134 12 -150 16 -35 57 -55 113 -55 44 0 45 0 45 -33 0 -90 65 -229
146 -310 187 -188 486 -198 691 -22 86 73 163 227 163 325 l0 38 62 4 c51 4
65 9 85 32 22 26 23 35 23 161 l0 134 83 3 82 3 3 88 3 87 -82 0 -82 0 6 43
c4 23 11 59 17 80 l11 38 145 -3 144 -3 0 93 0 93 -105 -3 c-66 -2 -105 1
-105 7 0 17 65 108 121 169 29 32 97 89 152 128 234 166 387 320 527 530 227
342 331 707 317 1122 -5 172 -18 263 -56 413 -154 603 -600 1099 -1181 1316
-206 77 -369 107 -614 114 l-189 6 6 -39z m641 -3952 c2 -4 -1 -38 -8 -77
l-11 -70 -495 0 -494 0 -12 70 c-6 39 -9 73 -7 77 5 10 1021 9 1027 0z m-24
-407 l0 -75 -490 0 -490 0 0 75 0 75 490 0 490 0 0 -75z m-172 -299 c-10 -90
-81 -185 -173 -234 -44 -24 -61 -27 -145 -27 -87 0 -100 3 -149 30 -29 16 -70
49 -92 73 -39 45 -79 134 -79 177 l0 25 321 0 322 0 -5 -44z"/>
<path d="M4837 8149 c-77 -18 -142 -63 -192 -134 -27 -38 -33 -41 -55 -33 -14
6 -61 8 -105 6 -61 -4 -92 -11 -130 -30 -67 -35 -128 -100 -160 -171 -24 -52
-27 -68 -23 -147 l3 -89 -61 -39 c-176 -114 -242 -335 -158 -527 2 -6 -12 -19
-31 -29 -50 -27 -122 -107 -147 -163 -33 -73 -31 -190 3 -263 32 -69 79 -123
134 -156 l43 -25 -20 -62 c-30 -94 -22 -211 20 -298 35 -74 110 -155 175 -189
l42 -22 0 -107 c0 -120 13 -157 85 -235 75 -81 217 -125 315 -97 35 10 41 9
50 -6 28 -47 94 -106 151 -134 169 -84 384 0 455 178 l24 58 0 1230 0 1230
-26 55 c-74 158 -230 237 -392 199z m149 -190 c26 -12 53 -36 66 -57 l23 -37
3 -1170 c2 -836 0 -1185 -8 -1222 -24 -112 -147 -161 -244 -98 -15 10 -34 31
-42 48 -15 28 -14 32 16 88 19 37 34 81 37 115 l6 55 -89 -3 -88 -3 -7 -34
c-22 -105 -135 -159 -228 -109 -53 28 -81 76 -81 136 0 76 53 143 124 156 l36
7 0 89 c0 67 -3 90 -13 90 -34 0 -136 -34 -171 -56 -38 -26 -39 -26 -82 -9
-52 20 -119 92 -134 144 -24 86 -7 167 46 229 41 49 73 67 138 82 126 28 262
-67 282 -196 l6 -44 90 0 90 0 -7 58 c-15 128 -112 265 -229 322 -124 61 -254
60 -379 -4 -58 -30 -72 -33 -101 -25 -48 13 -92 58 -107 107 -16 56 1 115 47
159 53 50 81 51 171 6 75 -37 80 -38 183 -38 102 0 109 1 182 38 81 40 152
107 189 179 23 45 49 141 49 180 l0 28 -90 0 c-87 0 -90 -1 -90 -23 0 -77 -66
-173 -144 -208 -83 -38 -213 -13 -273 52 -60 66 -80 185 -44 264 22 48 101
121 141 130 21 5 42 -2 84 -25 35 -20 75 -33 110 -37 l56 -6 0 92 0 91 -27 0
c-38 0 -89 33 -113 72 -27 44 -27 122 0 166 73 119 265 84 287 -53 l6 -35 88
0 89 0 0 28 c0 42 -27 126 -50 155 -26 33 -25 49 5 85 52 62 119 76 191 41z"/>
<path d="M5664 8149 c-62 -14 -144 -69 -185 -123 -74 -98 -70 -9 -67 -1386 l3
-1235 26 -50 c112 -211 377 -254 542 -88 26 25 49 55 53 65 4 14 11 16 32 11
15 -5 61 -8 102 -8 97 0 168 33 239 110 73 80 103 195 79 301 -7 30 -4 33 35
50 22 10 65 42 94 71 119 115 160 301 99 446 l-15 37 37 19 c54 27 125 108
148 166 30 78 26 194 -8 267 -29 62 -99 138 -147 157 -28 12 -29 14 -16 44 77
185 -5 419 -182 519 -48 27 -52 32 -45 56 4 15 7 56 6 92 -1 119 -76 235 -189
290 -44 22 -64 25 -157 25 l-107 0 -31 43 c-73 101 -214 150 -346 121z m139
-183 c33 -13 87 -68 87 -88 0 -6 -13 -38 -30 -72 -16 -33 -33 -82 -36 -108
l-7 -48 91 0 90 0 6 35 c4 19 18 48 33 65 72 86 188 80 257 -13 28 -38 28
-126 0 -164 -30 -40 -82 -73 -115 -73 l-29 0 0 -91 0 -92 55 6 c33 3 78 18
114 37 53 29 63 31 93 21 86 -29 152 -124 151 -220 0 -75 -26 -133 -79 -179
-92 -81 -222 -84 -312 -6 -50 42 -68 74 -83 144 l-11 50 -83 0 c-46 0 -87 -4
-90 -10 -11 -17 14 -122 45 -187 37 -80 110 -152 196 -194 56 -28 80 -34 154
-37 96 -5 159 10 239 55 39 23 48 24 81 14 47 -14 97 -69 106 -116 15 -83 -32
-162 -109 -183 -32 -9 -43 -7 -99 23 -84 45 -171 60 -257 45 -175 -30 -310
-158 -346 -326 -21 -101 -27 -94 75 -94 l90 0 6 40 c18 114 123 204 238 204
131 -1 238 -105 238 -233 1 -96 -50 -178 -136 -223 l-38 -20 -72 36 c-39 19
-92 38 -118 41 l-48 6 0 -89 0 -90 44 -11 c88 -22 141 -111 116 -193 -24 -82
-102 -129 -187 -113 -53 10 -110 70 -119 123 l-7 42 -90 0 -90 0 6 -52 c4 -29
21 -81 38 -115 35 -69 33 -89 -12 -127 -76 -64 -188 -47 -239 37 -19 31 -20
60 -20 1235 0 1298 -3 1228 52 1279 45 43 104 53 161 29z"/>
<path d="M3244 7742 c-40 -6 -67 -47 -75 -116 -5 -35 -18 -85 -30 -110 -44
-94 -146 -168 -249 -181 -76 -10 -89 -14 -110 -37 -27 -30 -26 -80 3 -114 20
-22 36 -29 92 -35 164 -20 274 -130 294 -294 9 -81 38 -115 97 -115 53 0 79
32 87 109 9 82 35 139 92 200 52 55 120 89 198 98 72 8 103 26 117 67 9 28 8
40 -5 65 -19 38 -36 47 -109 55 -157 18 -275 136 -292 292 -3 33 -12 69 -20
80 -15 24 -58 42 -90 36z m77 -441 l59 -59 -59 -60 -59 -61 -60 60 -60 60 56
58 c32 32 58 58 60 59 2 1 30 -25 63 -57z"/>
<path d="M3220 2288 c-77 -30 -169 -124 -198 -201 -29 -77 -29 -176 -1 -254
31 -80 123 -173 202 -202 107 -39 235 -23 308 39 31 26 33 30 18 45 -15 15
-20 14 -69 -17 -49 -30 -60 -33 -134 -33 -95 0 -137 18 -203 87 -59 60 -85
124 -85 208 0 92 29 156 98 219 99 90 223 106 327 41 45 -28 52 -29 65 -16 21
20 4 39 -62 73 -72 37 -189 42 -266 11z"/>
<path d="M5150 2175 c0 -45 0 -45 -35 -45 -31 0 -35 -3 -35 -25 0 -22 4 -25
35 -25 l35 0 0 -215 c0 -202 1 -216 20 -235 13 -13 33 -20 58 -20 61 0 82 10
82 36 0 22 -3 23 -46 17 -34 -4 -48 -2 -55 8 -5 8 -9 103 -9 212 l0 197 55 0
c52 0 55 1 55 25 0 24 -3 25 -55 25 l-55 0 0 45 c0 41 -2 45 -25 45 -23 0 -25
-4 -25 -45z"/>
<path d="M6320 2175 c0 -45 0 -45 -36 -45 -31 0 -35 -3 -32 -22 2 -18 11 -24
36 -26 l32 -3 0 -208 c0 -196 1 -210 21 -235 16 -21 29 -26 64 -26 58 0 75 8
75 34 0 20 -5 22 -47 22 l-48 -1 -3 208 -2 207 50 0 c47 0 50 2 50 25 0 23 -3
25 -50 25 l-50 0 0 45 c0 43 -1 45 -30 45 -29 0 -30 -2 -30 -45z"/>
<path d="M4708 2126 c-150 -39 -227 -199 -172 -359 17 -51 84 -120 139 -143
80 -33 196 -7 255 58 l30 32 0 -52 c0 -49 2 -52 25 -52 l25 0 0 260 0 260 -25
0 c-23 0 -25 -3 -25 -50 l0 -50 -39 39 c-56 56 -134 77 -213 57z m143 -62 c40
-20 87 -79 100 -126 14 -53 5 -142 -19 -182 -9 -16 -34 -43 -55 -59 -75 -61
-200 -44 -260 35 -51 67 -59 187 -17 255 52 87 164 121 251 77z"/>
<path d="M3650 1870 l0 -260 25 0 25 0 0 143 c0 153 8 196 43 247 35 52 70 73
132 78 50 4 55 7 55 28 0 22 -4 24 -45 24 -63 0 -105 -20 -148 -70 l-37 -44 0
57 c0 54 -1 57 -25 57 l-25 0 0 -260z"/>
<path d="M4103 2109 c-149 -73 -189 -287 -79 -416 76 -88 221 -110 322 -47 54
33 67 59 34 69 -15 5 -29 1 -43 -13 -55 -52 -158 -58 -229 -13 -46 30 -88 95
-88 139 0 22 1 22 216 22 l216 0 -4 59 c-6 81 -46 145 -118 189 -46 27 -64 32
-120 32 -46 0 -77 -6 -107 -21z m212 -60 c35 -24 85 -106 85 -141 0 -17 -12
-18 -190 -18 -214 2 -207 -1 -175 77 19 46 41 70 80 91 68 35 139 32 200 -9z"/>
<path d="M5410 1870 l0 -260 25 0 25 0 0 260 0 260 -25 0 -25 0 0 -260z"/>
<path d="M5560 2122 c0 -19 216 -502 224 -503 8 -1 202 432 222 494 5 15 1 18
-22 15 -26 -3 -33 -15 -110 -196 -45 -106 -85 -192 -90 -191 -5 0 -45 87 -90
193 -74 175 -83 191 -107 194 -15 2 -27 -1 -27 -6z"/>
<path d="M6110 1870 l0 -260 25 0 25 0 0 260 0 260 -25 0 -25 0 0 -260z"/>
<path d="M6649 1881 l108 -248 -33 -83 c-51 -126 -50 -122 -18 -118 26 3 34
19 165 343 76 187 139 344 139 348 0 5 -12 7 -27 5 -24 -3 -31 -14 -65 -98
-99 -247 -131 -321 -139 -313 -4 4 -46 99 -94 211 -84 194 -89 202 -116 202
l-28 0 108 -249z"/>
</g>
</svg>
