<?xml version="1.0" standalone="no"?>
<!DOCTYPE svg PUBLIC "-//W3C//DTD SVG 20010904//EN"
 "http://www.w3.org/TR/2001/REC-SVG-20010904/DTD/svg10.dtd">
<svg version="1.0" xmlns="http://www.w3.org/2000/svg"
 width="133.000000pt" height="133.000000pt" viewBox="0 0 133.000000 133.000000"
 preserveAspectRatio="xMidYMid meet">
<metadata>
Created by potrace 1.16, written by Peter Selinger 2001-2019
</metadata>
<g transform="translate(0.000000,133.000000) scale(0.100000,-0.100000)"
fill="#000000" stroke="none">
<path d="M227 1263 c-4 -3 -7 -69 -7 -145 l0 -138 -54 0 c-89 0 -86 12 -86
-382 0 -325 1 -339 20 -358 19 -19 33 -20 230 -20 235 0 219 6 199 -75 -11
-43 -12 -44 -58 -47 -33 -2 -46 -7 -46 -18 0 -13 33 -15 240 -15 207 0 240 2
240 15 0 11 -13 16 -46 18 -45 3 -47 4 -54 40 -3 20 -9 47 -12 59 l-5 23 211
0 c198 0 212 1 231 20 19 19 20 33 20 358 0 394 3 382 -85 382 l-54 0 -3 143
-3 142 -436 3 c-239 1 -439 -1 -442 -5z m843 -348 l0 -315 -405 0 -405 0 0
315 0 315 405 0 405 0 0 -315z m-848 -162 l3 -188 440 0 440 0 3 188 2 188 48
-3 47 -3 3 -257 2 -258 -545 0 -545 0 0 253 c0 140 3 257 7 260 3 4 26 7 49 7
l44 0 2 -187z m986 -430 l-3 -58 -540 0 -540 0 -3 58 -3 57 546 0 546 0 -3
-57z m-449 -153 c6 -28 11 -55 11 -60 0 -6 -45 -10 -105 -10 -58 0 -105 3
-105 8 0 7 18 76 25 100 3 8 29 12 84 12 l79 0 11 -50z"/>
<path d="M327 914 c-4 -4 -7 -13 -7 -21 0 -10 50 -13 261 -13 243 0 260 1 257
18 -3 16 -24 17 -254 20 -138 1 -253 -1 -257 -4z"/>
<path d="M320 795 c0 -13 41 -15 305 -15 264 0 305 2 305 15 0 13 -41 15 -305
15 -264 0 -305 -2 -305 -15z"/>
<path d="M322 693 c3 -17 27 -18 343 -18 316 0 340 1 343 18 3 16 -18 17 -343
17 -325 0 -346 -1 -343 -17z"/>
</g>
</svg>
