<?xml version="1.0" standalone="no"?>
<!DOCTYPE svg PUBLIC "-//W3C//DTD SVG 20010904//EN"
 "http://www.w3.org/TR/2001/REC-SVG-20010904/DTD/svg10.dtd">
<svg version="1.0" xmlns="http://www.w3.org/2000/svg"
 width="512.000000pt" height="512.000000pt" viewBox="0 0 512.000000 512.000000"
 preserveAspectRatio="xMidYMid meet">
<metadata>
Created by potrace 1.16, written by Peter Selinger 2001-2019
</metadata>
<g transform="translate(0.000000,512.000000) scale(0.100000,-0.100000)"
fill="#000000" stroke="none">
<path d="M2500 5100 c-19 -19 -20 -33 -20 -206 0 -102 4 -194 10 -204 14 -27
64 -41 100 -28 17 5 35 18 40 28 6 10 10 102 10 204 0 173 -1 187 -20 206 -13
13 -33 20 -60 20 -27 0 -47 -7 -60 -20z"/>
<path d="M1415 4820 c-28 -11 -44 -31 -51 -66 -4 -24 10 -56 81 -179 47 -82
93 -156 102 -162 28 -22 87 -16 111 10 39 42 30 77 -63 237 -96 165 -119 186
-180 160z"/>
<path d="M3633 4818 c-13 -6 -59 -73 -108 -158 -94 -162 -104 -199 -62 -238
26 -25 83 -30 110 -9 9 6 55 80 102 162 72 125 85 155 80 180 -11 56 -73 88
-122 63z"/>
<path d="M2356 4380 c-300 -47 -564 -186 -779 -409 -230 -239 -359 -541 -374
-882 -13 -286 38 -476 206 -767 131 -228 178 -332 225 -499 47 -162 67 -312
75 -554 7 -219 8 -228 35 -282 30 -63 80 -111 143 -139 l43 -19 0 -98 c0 -89
3 -103 31 -159 33 -66 70 -103 135 -135 l42 -20 4 -106 c3 -90 8 -114 30 -157
28 -53 76 -101 131 -131 27 -15 64 -18 246 -21 245 -4 273 2 349 72 71 65 85
103 90 233 l4 112 34 11 c52 18 128 92 154 152 17 40 24 78 28 155 4 89 7 103
23 108 45 14 118 85 145 141 27 55 28 63 35 283 8 242 28 392 75 554 47 167
94 270 226 501 44 76 95 174 114 218 114 267 124 605 27 912 -98 311 -331 597
-618 761 -111 63 -210 103 -345 137 -103 27 -134 31 -295 33 -99 2 -206 0
-239 -5z m124 -285 l0 -125 -58 6 c-122 13 -261 -50 -329 -150 -99 -145 -77
-346 52 -465 74 -68 123 -86 237 -86 l98 0 0 -127 0 -128 -214 0 c-201 0 -215
-1 -240 -21 -35 -28 -34 -72 4 -144 36 -68 38 -112 9 -173 -44 -90 -158 -128
-247 -83 -46 23 -67 46 -87 94 -23 56 -19 104 15 164 37 65 38 105 5 138 -24
25 -27 25 -191 25 l-167 0 6 88 c35 489 358 902 825 1057 83 27 202 52 255 54
l27 1 0 -125z m282 110 c238 -41 468 -163 644 -340 200 -202 320 -469 341
-757 l6 -88 -79 0 -80 0 4 69 c10 178 -98 325 -272 368 -161 39 -329 -42 -403
-195 -23 -49 -27 -69 -28 -149 l0 -93 -127 0 -128 0 0 219 0 220 -26 20 c-36
28 -64 26 -131 -9 -75 -40 -132 -41 -195 -1 -77 49 -106 138 -73 219 21 49 52
81 100 103 58 27 91 24 171 -16 63 -31 74 -34 103 -24 17 6 36 19 41 29 6 11
10 111 10 229 0 243 -14 220 122 196z m572 -933 c53 -31 89 -86 94 -144 3 -45
-1 -62 -27 -112 -36 -67 -39 -104 -12 -137 18 -23 26 -24 183 -29 l165 -5 -13
-62 c-20 -99 -72 -214 -187 -419 -114 -203 -168 -324 -210 -469 -29 -101 -62
-269 -72 -360 -3 -33 -8 -75 -11 -92 l-5 -33 -299 0 -300 0 0 248 0 247 83 -3
c66 -3 94 1 142 19 76 28 155 102 192 178 24 49 27 68 28 151 0 84 -3 102 -28
152 -37 75 -98 135 -177 172 -57 27 -75 30 -152 30 l-88 -1 0 124 0 123 215 0
c216 0 216 0 240 25 33 33 33 83 -1 134 -105 160 77 359 240 263z m-1809 -515
c0 -81 3 -99 28 -149 36 -73 119 -150 192 -177 75 -28 185 -28 259 0 77 28
148 96 188 177 30 60 33 75 33 154 l0 88 128 0 127 0 0 -214 c0 -195 2 -216
19 -237 26 -32 85 -32 127 -1 94 70 226 35 275 -73 24 -51 23 -99 0 -151 -48
-105 -178 -137 -279 -69 -45 30 -81 32 -116 4 l-26 -20 0 -340 0 -339 -299 0
-299 0 -6 28 c-3 15 -8 56 -11 92 -10 95 -43 262 -72 365 -41 144 -96 266
-207 464 -135 239 -173 326 -195 444 l-8 47 71 0 71 0 0 -93z m1713 -1596 c-5
-86 -19 -118 -65 -148 -25 -17 -70 -18 -614 -18 -578 0 -588 0 -616 21 -44 32
-63 80 -63 157 l0 67 681 0 682 0 -5 -79z m-200 -420 c-5 -87 -26 -130 -76
-150 -20 -8 -136 -11 -411 -9 l-383 3 -34 37 c-33 36 -34 41 -34 118 l0 80
471 0 472 0 -5 -79z m-218 -406 c0 -85 -14 -122 -57 -151 -25 -17 -47 -19
-193 -19 -146 0 -169 2 -197 20 -46 27 -63 70 -63 154 l0 71 255 0 255 0 0
-75z"/>
<path d="M575 3985 c-31 -30 -33 -82 -6 -111 10 -11 84 -58 164 -103 124 -70
151 -82 177 -76 60 13 90 89 53 133 -10 12 -81 57 -158 101 -156 90 -189 98
-230 56z"/>
<path d="M4315 3929 c-77 -44 -148 -89 -157 -101 -38 -44 -8 -120 52 -133 26
-6 53 6 177 76 80 45 154 92 164 103 27 29 25 81 -6 111 -41 42 -74 34 -230
-56z"/>
</g>
</svg>
