<?xml version="1.0" standalone="no"?>
<!DOCTYPE svg PUBLIC "-//W3C//DTD SVG 20010904//EN"
 "http://www.w3.org/TR/2001/REC-SVG-20010904/DTD/svg10.dtd">
<svg version="1.0" xmlns="http://www.w3.org/2000/svg"
 width="200.000000pt" height="200.000000pt" viewBox="0 0 200.000000 200.000000"
 preserveAspectRatio="xMidYMid meet">
<metadata>
Created by potrace 1.16, written by Peter Selinger 2001-2019
</metadata>
<g transform="translate(0.000000,200.000000) scale(0.100000,-0.100000)"
fill="#000000" stroke="none">
<path d="M1280 1821 c-116 -36 -201 -152 -200 -275 1 -23 9 -66 20 -96 l19
-55 -26 -46 c-45 -83 -19 -107 69 -67 72 32 104 22 113 -36 23 -143 134 -236
280 -236 81 0 141 23 194 73 40 38 81 120 81 163 0 26 8 36 50 62 38 24 50 37
50 56 0 23 -5 26 -60 32 -53 6 -63 10 -75 34 -18 35 -101 109 -132 116 -18 5
-23 13 -24 38 -3 128 -135 247 -273 245 -34 0 -72 -4 -86 -8z m174 -77 c59
-31 97 -77 116 -145 8 -26 7 -27 -44 -34 -105 -14 -179 -64 -222 -151 -21 -43
-30 -53 -43 -48 -9 4 -28 8 -43 8 -22 1 -28 6 -28 24 0 12 -9 40 -20 62 -89
174 109 372 284 284z m116 -252 c0 -22 -62 -102 -95 -122 -47 -29 -125 -40
-125 -17 0 27 64 100 109 124 43 22 111 32 111 15z m111 -36 c19 -13 46 -45
60 -70 16 -31 31 -46 44 -46 18 -1 19 -1 3 -11 -10 -6 -18 -22 -18 -37 0 -125
-123 -235 -242 -219 -83 11 -169 88 -184 165 -6 31 -6 32 29 32 94 0 207 77
244 166 10 24 20 44 23 44 3 0 21 -11 41 -24z"/>
<path d="M474 1491 c-209 -33 -357 -166 -409 -368 -20 -78 -19 -155 5 -242 24
-84 46 -132 103 -215 68 -101 80 -142 86 -311 l6 -150 244 -3 c261 -3 261 -3
261 46 0 33 28 89 48 97 9 4 59 10 111 14 89 8 96 10 123 40 26 29 28 37 28
114 0 96 6 106 73 138 83 38 82 88 -7 212 l-47 66 6 69 c13 126 -37 255 -136
354 -88 88 -200 132 -362 142 -45 2 -105 1 -133 -3z m251 -81 c43 -11 97 -31
119 -44 59 -35 133 -117 164 -184 24 -51 27 -69 27 -168 l0 -110 52 -76 c74
-106 73 -103 13 -129 -66 -28 -80 -55 -80 -156 0 -43 -4 -83 -8 -90 -13 -21
-61 -33 -129 -33 -86 0 -130 -21 -154 -74 -10 -23 -19 -51 -19 -63 l0 -23
-190 0 -190 0 0 78 c-1 169 -27 259 -110 382 -86 127 -118 251 -95 364 55 264
308 401 600 326z"/>
<path d="M471 1325 c-68 -19 -109 -44 -156 -96 -59 -65 -79 -121 -79 -214 0
-98 24 -159 91 -227 66 -67 128 -92 228 -92 102 0 166 26 230 95 68 73 89 127
89 224 0 66 -5 90 -28 137 -66 139 -228 214 -375 173z m190 -79 c147 -71 194
-259 96 -388 -121 -158 -378 -118 -442 71 -46 135 21 274 159 328 42 17 143
11 187 -11z"/>
<path d="M586 1071 c-49 -50 -93 -88 -98 -85 -5 3 -17 23 -29 45 -21 43 -52
50 -72 18 -15 -24 67 -159 97 -159 15 0 59 38 135 114 116 118 132 148 81 154
-20 2 -43 -16 -114 -87z"/>
<path d="M1272 676 c-56 -57 -102 -108 -102 -113 0 -6 18 -33 40 -59 29 -35
40 -58 40 -82 0 -22 8 -41 25 -58 14 -14 25 -29 25 -33 0 -16 42 -61 57 -61 8
0 24 -11 34 -24 11 -14 32 -27 48 -31 16 -3 37 -15 47 -26 20 -22 76 -26 93
-5 8 10 24 12 51 9 33 -5 43 -1 68 23 16 16 40 35 55 41 14 7 28 21 32 32 3
12 10 21 14 21 4 0 17 9 29 20 16 15 22 32 22 63 0 37 7 50 50 99 28 31 50 62
50 69 0 8 -46 60 -102 116 -104 104 -132 120 -158 88 -8 -10 -32 -15 -69 -16
-31 0 -65 -4 -76 -8 -24 -10 -94 5 -116 25 -31 28 -54 15 -157 -90z m167 10
l35 -12 -37 -28 c-27 -21 -37 -36 -37 -56 0 -63 106 -95 164 -49 17 13 35 19
49 15 27 -7 184 -163 174 -173 -4 -4 -27 13 -51 36 -48 47 -79 51 -84 12 -3
-17 8 -36 39 -67 24 -24 39 -44 33 -44 -5 0 -21 13 -36 30 -30 35 -43 37 -59
11 -12 -18 -49 -18 -49 0 0 8 -54 63 -121 126 -5 4 -18 19 -28 33 -22 29 -80
33 -109 7 -24 -22 -27 -22 -47 9 l-17 26 68 69 c38 38 71 69 74 68 3 0 20 -6
39 -13z m421 -128 c0 -4 -13 -22 -29 -40 l-29 -32 -72 67 c-81 75 -125 92
-169 64 -85 -54 -97 -48 -37 17 43 48 45 48 122 55 l79 7 68 -65 c37 -36 67
-69 67 -73z"/>
</g>
</svg>
